<svg id="visual" viewBox="0 0 900 600" width="900" height="600" xmlns="http://www.w3.org/2000/svg" xmlns:xlink="http://www.w3.org/1999/xlink" version="1.1"><path d="M593 600L539 600L539 540L386 540L386 480L665 480L665 420L593 420L593 360L512 360L512 300L341 300L341 240L584 240L584 180L512 180L512 120L692 120L692 60L629 60L629 0L900 0L900 60L900 60L900 120L900 120L900 180L900 180L900 240L900 240L900 300L900 300L900 360L900 360L900 420L900 420L900 480L900 480L900 540L900 540L900 600L900 600Z" fill="#feff2c"></path><path d="M305 600L323 600L323 540L314 540L314 480L413 480L413 420L404 420L404 360L332 360L332 300L269 300L269 240L512 240L512 180L251 180L251 120L521 120L521 60L449 60L449 0L630 0L630 60L693 60L693 120L513 120L513 180L585 180L585 240L342 240L342 300L513 300L513 360L594 360L594 420L666 420L666 480L387 480L387 540L540 540L540 600L594 600Z" fill="#c5ff4d"></path><path d="M233 600L242 600L242 540L161 540L161 480L197 480L197 420L278 420L278 360L269 360L269 300L161 300L161 240L404 240L404 180L134 180L134 120L341 120L341 60L224 60L224 0L450 0L450 60L522 60L522 120L252 120L252 180L513 180L513 240L270 240L270 300L333 300L333 360L405 360L405 420L414 420L414 480L315 480L315 540L324 540L324 600L306 600Z" fill="#89ff71"></path><path d="M0 600L0 600L0 540L0 540L0 480L0 480L0 420L0 420L0 360L0 360L0 300L0 300L0 240L0 240L0 180L0 180L0 120L0 120L0 60L0 60L0 0L225 0L225 60L342 60L342 120L135 120L135 180L405 180L405 240L162 240L162 300L270 300L270 360L279 360L279 420L198 420L198 480L162 480L162 540L243 540L243 600L234 600Z" fill="#2cff97"></path></svg>